<svg xmlns="http://www.w3.org/2000/svg" width="900" height="480" viewBox="0 0 900 480" role="img" aria-labelledby="title desc">
<title>PZH-016 示意图</title><desc>用于帮助理解题意的示意图，不作为题目条件</desc>
<rect width="100%" height="100%" rx="24" fill="#ffffff"/><style>
text{font-family:-apple-system,BlinkMacSystemFont,"Segoe UI","Noto Sans SC","Microsoft YaHei",sans-serif;fill:#24324a}
.label{font-size:18px;font-weight:700}.small{font-size:14px;fill:#52627a}.tiny{font-size:12px;fill:#6b7a90}
.line{stroke:#26364d;stroke-width:2.2;fill:none;stroke-linecap:round;stroke-linejoin:round}
.soft{stroke:#91a4bd;stroke-width:1.3;fill:none}.grid{stroke:#cbd5e1;stroke-width:1}.accent{stroke:#2775ff;stroke-width:4;fill:none;stroke-linecap:round;stroke-linejoin:round}
.accent-fill{fill:#dbeafe;stroke:#2775ff;stroke-width:2}.warm{fill:#fff2c7;stroke:#d69e2e;stroke-width:2}.good{fill:#dcfce7;stroke:#16a34a;stroke-width:2}.muted-fill{fill:#f8fafc;stroke:#94a3b8;stroke-width:1.5}
</style><text x="40" y="42" class="label">有限差分三角形</text><text x="40" y="72" class="small">下一层每个数 = 右上数 − 左上数（模 n）</text><circle cx="232.5" cy="130" r="29" class="accent-fill"/><text x="225.5" y="137" class="label">4</text><path d="M246.5 158 L305.0 184 M363.5 158 L305.0 184" class="soft"/><circle cx="377.5" cy="130" r="29" class="accent-fill"/><text x="370.5" y="137" class="label">2</text><path d="M391.5 158 L450.0 184 M508.5 158 L450.0 184" class="soft"/><circle cx="522.5" cy="130" r="29" class="accent-fill"/><text x="515.5" y="137" class="label">3</text><path d="M536.5 158 L595.0 184 M653.5 158 L595.0 184" class="soft"/><circle cx="667.5" cy="130" r="29" class="accent-fill"/><text x="660.5" y="137" class="label">1</text><circle cx="305.0" cy="215" r="29" class="accent-fill"/><text x="298.0" y="222" class="label">2</text><path d="M319.0 243 L377.5 269 M436.0 243 L377.5 269" class="soft"/><circle cx="450.0" cy="215" r="29" class="accent-fill"/><text x="443.0" y="222" class="label">1</text><path d="M464.0 243 L522.5 269 M581.0 243 L522.5 269" class="soft"/><circle cx="595.0" cy="215" r="29" class="accent-fill"/><text x="588.0" y="222" class="label">2</text><circle cx="377.5" cy="300" r="29" class="accent-fill"/><text x="370.5" y="307" class="label">3</text><path d="M391.5 328 L450.0 354 M508.5 328 L450.0 354" class="soft"/><circle cx="522.5" cy="300" r="29" class="accent-fill"/><text x="515.5" y="307" class="label">1</text><circle cx="450.0" cy="385" r="29" class="accent-fill"/><text x="443.0" y="392" class="label">2</text><text x="620" y="230" class="small">3−2≡1</text><text x="620" y="318" class="small">1−3≡2 (mod 4)</text></svg>