<svg xmlns="http://www.w3.org/2000/svg" width="900" height="480" viewBox="0 0 900 480" role="img" aria-labelledby="title desc">
<title>PZH-029 示意图</title><desc>用于帮助理解题意的示意图，不作为题目条件</desc>
<rect width="100%" height="100%" rx="24" fill="#ffffff"/><style>
text{font-family:-apple-system,BlinkMacSystemFont,"Segoe UI","Noto Sans SC","Microsoft YaHei",sans-serif;fill:#24324a}
.label{font-size:18px;font-weight:700}.small{font-size:14px;fill:#52627a}.tiny{font-size:12px;fill:#6b7a90}
.line{stroke:#26364d;stroke-width:2.2;fill:none;stroke-linecap:round;stroke-linejoin:round}
.soft{stroke:#91a4bd;stroke-width:1.3;fill:none}.grid{stroke:#cbd5e1;stroke-width:1}.accent{stroke:#2775ff;stroke-width:4;fill:none;stroke-linecap:round;stroke-linejoin:round}
.accent-fill{fill:#dbeafe;stroke:#2775ff;stroke-width:2}.warm{fill:#fff2c7;stroke:#d69e2e;stroke-width:2}.good{fill:#dcfce7;stroke:#16a34a;stroke-width:2}.muted-fill{fill:#f8fafc;stroke:#94a3b8;stroke-width:1.5}
</style><text x="40" y="42" class="label">方格裂缝、端点对角线与围成面积</text><line x1="140" y1="93" x2="140" y2="405" class="grid"/><line x1="140" y1="405" x2="452" y2="405" class="grid"/><line x1="192" y1="93" x2="192" y2="405" class="grid"/><line x1="140" y1="353" x2="452" y2="353" class="grid"/><line x1="244" y1="93" x2="244" y2="405" class="grid"/><line x1="140" y1="301" x2="452" y2="301" class="grid"/><line x1="296" y1="93" x2="296" y2="405" class="grid"/><line x1="140" y1="249" x2="452" y2="249" class="grid"/><line x1="348" y1="93" x2="348" y2="405" class="grid"/><line x1="140" y1="197" x2="452" y2="197" class="grid"/><line x1="400" y1="93" x2="400" y2="405" class="grid"/><line x1="140" y1="145" x2="452" y2="145" class="grid"/><line x1="452" y1="93" x2="452" y2="405" class="grid"/><line x1="140" y1="93" x2="452" y2="93" class="grid"/><polygon points="140,405 192,405 192,353 192,301 244,301 296,301 296,249 348,249 348,197 348,145 400,145 140,405" fill="#dbeafe" opacity="0.65"/><polyline points="140,405 192,405 192,353 192,301 244,301 296,301 296,249 348,249 348,197 348,145 400,145" class="accent"/><line x1="140" y1="405" x2="400" y2="145" stroke="#d97706" stroke-width="3" stroke-dasharray="8 6"/><text x="540" y="155" class="small">蓝线：裂缝（R/U 路径）</text><text x="540" y="195" class="small">橙虚线：连接端点的对角线</text><text x="540" y="245" class="small">浅蓝区域：面积 B</text><text x="540" y="305" class="tiny">图中只示意一段，不代表唯一答案</text></svg>