<svg xmlns="http://www.w3.org/2000/svg" width="900" height="480" viewBox="0 0 900 480" role="img" aria-labelledby="title desc">
<title>PZH-036 示意图</title><desc>用于帮助理解题意的示意图，不作为题目条件</desc>
<rect width="100%" height="100%" rx="24" fill="#ffffff"/><style>
text{font-family:-apple-system,BlinkMacSystemFont,"Segoe UI","Noto Sans SC","Microsoft YaHei",sans-serif;fill:#24324a}
.label{font-size:18px;font-weight:700}.small{font-size:14px;fill:#52627a}.tiny{font-size:12px;fill:#6b7a90}
.line{stroke:#26364d;stroke-width:2.2;fill:none;stroke-linecap:round;stroke-linejoin:round}
.soft{stroke:#91a4bd;stroke-width:1.3;fill:none}.grid{stroke:#cbd5e1;stroke-width:1}.accent{stroke:#2775ff;stroke-width:4;fill:none;stroke-linecap:round;stroke-linejoin:round}
.accent-fill{fill:#dbeafe;stroke:#2775ff;stroke-width:2}.warm{fill:#fff2c7;stroke:#d69e2e;stroke-width:2}.good{fill:#dcfce7;stroke:#16a34a;stroke-width:2}.muted-fill{fill:#f8fafc;stroke:#94a3b8;stroke-width:1.5}
</style><text x="40" y="42" class="label">正奇边形上的顶点距离与一次标记</text><polygon points="390.0,65.0 487.3,93.6 553.7,170.2 568.2,270.6 526.0,362.9 440.7,417.7 339.3,417.7 254.0,362.9 211.8,270.6 226.3,170.2 292.7,93.6" fill="#f8fafc" stroke="#26364d" stroke-width="2.5"/><circle cx="390.0" cy="65.0" r="10" fill="#2775ff" stroke="#26364d" stroke-width="3"/><text x="386.0" y="49.0" class="tiny">0</text><circle cx="487.3" cy="93.6" r="10" fill="#ffffff" stroke="#26364d" stroke-width="2"/><text x="483.3" y="77.6" class="tiny">1</text><circle cx="553.7" cy="170.2" r="10" fill="#2775ff" stroke="#26364d" stroke-width="3"/><text x="549.7" y="154.2" class="tiny">2</text><circle cx="568.2" cy="270.6" r="10" fill="#ffffff" stroke="#26364d" stroke-width="2"/><text x="564.2" y="254.6" class="tiny">3</text><circle cx="526.0" cy="362.9" r="10" fill="#2775ff" stroke="#26364d" stroke-width="3"/><text x="522.0" y="346.9" class="tiny">4</text><circle cx="440.7" cy="417.7" r="10" fill="#ffffff" stroke="#26364d" stroke-width="2"/><text x="436.7" y="401.7" class="tiny">5</text><circle cx="339.3" cy="417.7" r="10" fill="#2775ff" stroke="#26364d" stroke-width="3"/><text x="335.3" y="401.7" class="tiny">6</text><circle cx="254.0" cy="362.9" r="10" fill="#ffffff" stroke="#26364d" stroke-width="2"/><text x="250.0" y="346.9" class="tiny">7</text><circle cx="211.8" cy="270.6" r="10" fill="#2775ff" stroke="#26364d" stroke-width="3"/><text x="207.8" y="254.6" class="tiny">8</text><circle cx="226.3" cy="170.2" r="10" fill="#ffffff" stroke="#26364d" stroke-width="2"/><text x="222.3" y="154.2" class="tiny">9</text><circle cx="292.7" cy="93.6" r="10" fill="#ffffff" stroke="#26364d" stroke-width="2"/><text x="288.7" y="77.6" class="tiny">10</text><line x1="390.0" y1="65.0" x2="568.2" y2="270.6" stroke="#f59e0b" stroke-width="3"/><line x1="553.7" y1="170.2" x2="440.7" y2="417.7" stroke="#f59e0b" stroke-width="3"/><line x1="526.0" y1="362.9" x2="254.0" y2="362.9" stroke="#f59e0b" stroke-width="3"/><text x="635" y="150" class="small">蓝点：Alice 标出的顶点</text><text x="635" y="195" class="small">橙线：相距 d 的点对示意</text><text x="635" y="252" class="small">Bob 只回答点对数的</text><text x="635" y="287" class="label">奇 / 偶</text></svg>