<svg xmlns="http://www.w3.org/2000/svg" width="900" height="480" viewBox="0 0 900 480" role="img" aria-labelledby="title desc">
<title>PZH-028 示意图</title><desc>用于帮助理解题意的示意图，不作为题目条件</desc>
<rect width="100%" height="100%" rx="24" fill="#ffffff"/><style>
text{font-family:-apple-system,BlinkMacSystemFont,"Segoe UI","Noto Sans SC","Microsoft YaHei",sans-serif;fill:#24324a}
.label{font-size:18px;font-weight:700}.small{font-size:14px;fill:#52627a}.tiny{font-size:12px;fill:#6b7a90}
.line{stroke:#26364d;stroke-width:2.2;fill:none;stroke-linecap:round;stroke-linejoin:round}
.soft{stroke:#91a4bd;stroke-width:1.3;fill:none}.grid{stroke:#cbd5e1;stroke-width:1}.accent{stroke:#2775ff;stroke-width:4;fill:none;stroke-linecap:round;stroke-linejoin:round}
.accent-fill{fill:#dbeafe;stroke:#2775ff;stroke-width:2}.warm{fill:#fff2c7;stroke:#d69e2e;stroke-width:2}.good{fill:#dcfce7;stroke:#16a34a;stroke-width:2}.muted-fill{fill:#f8fafc;stroke:#94a3b8;stroke-width:1.5}
</style><text x="40" y="42" class="label">选中一格后擦去同横排与同竖排</text><rect x="215" y="85" width="48" height="48" fill="#ffffff" stroke="#94a3b8"/><rect x="263" y="85" width="48" height="48" fill="#ffffff" stroke="#94a3b8"/><rect x="311" y="85" width="48" height="48" fill="#ffffff" stroke="#94a3b8"/><rect x="359" y="85" width="48" height="48" fill="#e2e8f0" stroke="#94a3b8"/><rect x="407" y="85" width="48" height="48" fill="#ffffff" stroke="#94a3b8"/><rect x="455" y="85" width="48" height="48" fill="#ffffff" stroke="#94a3b8"/><rect x="503" y="85" width="48" height="48" fill="#ffffff" stroke="#94a3b8"/><rect x="215" y="133" width="48" height="48" fill="#ffffff" stroke="#94a3b8"/><rect x="263" y="133" width="48" height="48" fill="#ffffff" stroke="#94a3b8"/><rect x="311" y="133" width="48" height="48" fill="#ffffff" stroke="#94a3b8"/><rect x="359" y="133" width="48" height="48" fill="#e2e8f0" stroke="#94a3b8"/><rect x="407" y="133" width="48" height="48" fill="#ffffff" stroke="#94a3b8"/><rect x="455" y="133" width="48" height="48" fill="#ffffff" stroke="#94a3b8"/><rect x="503" y="133" width="48" height="48" fill="#ffffff" stroke="#94a3b8"/><rect x="215" y="181" width="48" height="48" fill="#ffffff" stroke="#94a3b8"/><rect x="263" y="181" width="48" height="48" fill="#ffffff" stroke="#94a3b8"/><rect x="311" y="181" width="48" height="48" fill="#ffffff" stroke="#94a3b8"/><rect x="359" y="181" width="48" height="48" fill="#e2e8f0" stroke="#94a3b8"/><rect x="407" y="181" width="48" height="48" fill="#ffffff" stroke="#94a3b8"/><rect x="455" y="181" width="48" height="48" fill="#ffffff" stroke="#94a3b8"/><rect x="503" y="181" width="48" height="48" fill="#ffffff" stroke="#94a3b8"/><rect x="215" y="229" width="48" height="48" fill="#e2e8f0" stroke="#94a3b8"/><rect x="263" y="229" width="48" height="48" fill="#e2e8f0" stroke="#94a3b8"/><rect x="311" y="229" width="48" height="48" fill="#e2e8f0" stroke="#94a3b8"/><rect x="359" y="229" width="48" height="48" fill="#bfdbfe" stroke="#94a3b8"/><rect x="407" y="229" width="48" height="48" fill="#e2e8f0" stroke="#94a3b8"/><rect x="455" y="229" width="48" height="48" fill="#e2e8f0" stroke="#94a3b8"/><rect x="503" y="229" width="48" height="48" fill="#e2e8f0" stroke="#94a3b8"/><rect x="215" y="277" width="48" height="48" fill="#ffffff" stroke="#94a3b8"/><rect x="263" y="277" width="48" height="48" fill="#ffffff" stroke="#94a3b8"/><rect x="311" y="277" width="48" height="48" fill="#ffffff" stroke="#94a3b8"/><rect x="359" y="277" width="48" height="48" fill="#e2e8f0" stroke="#94a3b8"/><rect x="407" y="277" width="48" height="48" fill="#ffffff" stroke="#94a3b8"/><rect x="455" y="277" width="48" height="48" fill="#ffffff" stroke="#94a3b8"/><rect x="503" y="277" width="48" height="48" fill="#ffffff" stroke="#94a3b8"/><rect x="215" y="325" width="48" height="48" fill="#ffffff" stroke="#94a3b8"/><rect x="263" y="325" width="48" height="48" fill="#ffffff" stroke="#94a3b8"/><rect x="311" y="325" width="48" height="48" fill="#ffffff" stroke="#94a3b8"/><rect x="359" y="325" width="48" height="48" fill="#e2e8f0" stroke="#94a3b8"/><rect x="407" y="325" width="48" height="48" fill="#ffffff" stroke="#94a3b8"/><rect x="455" y="325" width="48" height="48" fill="#ffffff" stroke="#94a3b8"/><rect x="503" y="325" width="48" height="48" fill="#ffffff" stroke="#94a3b8"/><rect x="215" y="373" width="48" height="48" fill="#ffffff" stroke="#94a3b8"/><rect x="263" y="373" width="48" height="48" fill="#ffffff" stroke="#94a3b8"/><rect x="311" y="373" width="48" height="48" fill="#ffffff" stroke="#94a3b8"/><rect x="359" y="373" width="48" height="48" fill="#e2e8f0" stroke="#94a3b8"/><rect x="407" y="373" width="48" height="48" fill="#ffffff" stroke="#94a3b8"/><rect x="455" y="373" width="48" height="48" fill="#ffffff" stroke="#94a3b8"/><rect x="503" y="373" width="48" height="48" fill="#ffffff" stroke="#94a3b8"/><circle cx="383.0" cy="253.0" r="11" fill="#2775ff"/><text x="600" y="145" class="small">擦除后留下四个矩形块</text><rect x="600" y="175" width="95" height="75" rx="10" class="accent-fill"/><rect x="715" y="175" width="95" height="75" rx="10" class="accent-fill"/><rect x="600" y="270" width="95" height="75" rx="10" class="accent-fill"/><rect x="715" y="270" width="95" height="75" rx="10" class="accent-fill"/><text x="632" y="220" class="label">①</text><text x="747" y="220" class="label">②</text><text x="632" y="315" class="label">③</text><text x="747" y="315" class="label">④</text></svg>