<svg xmlns="http://www.w3.org/2000/svg" width="900" height="480" viewBox="0 0 900 480" role="img" aria-labelledby="title desc">
<title>PZH-009 示意图</title><desc>用于帮助理解题意的示意图，不作为题目条件</desc>
<rect width="100%" height="100%" rx="24" fill="#ffffff"/><style>
text{font-family:-apple-system,BlinkMacSystemFont,"Segoe UI","Noto Sans SC","Microsoft YaHei",sans-serif;fill:#24324a}
.label{font-size:18px;font-weight:700}.small{font-size:14px;fill:#52627a}.tiny{font-size:12px;fill:#6b7a90}
.line{stroke:#26364d;stroke-width:2.2;fill:none;stroke-linecap:round;stroke-linejoin:round}
.soft{stroke:#91a4bd;stroke-width:1.3;fill:none}.grid{stroke:#cbd5e1;stroke-width:1}.accent{stroke:#2775ff;stroke-width:4;fill:none;stroke-linecap:round;stroke-linejoin:round}
.accent-fill{fill:#dbeafe;stroke:#2775ff;stroke-width:2}.warm{fill:#fff2c7;stroke:#d69e2e;stroke-width:2}.good{fill:#dcfce7;stroke:#16a34a;stroke-width:2}.muted-fill{fill:#f8fafc;stroke:#94a3b8;stroke-width:1.5}
</style><text x="40" y="40" class="label">灯阵从 t=k 到 t=k+1 的一次更新</text><line x1="55" y1="80" x2="55" y2="355" class="grid"/><line x1="55" y1="80" x2="330" y2="80" class="grid"/><line x1="110" y1="80" x2="110" y2="355" class="grid"/><line x1="55" y1="135" x2="330" y2="135" class="grid"/><line x1="165" y1="80" x2="165" y2="355" class="grid"/><line x1="55" y1="190" x2="330" y2="190" class="grid"/><line x1="220" y1="80" x2="220" y2="355" class="grid"/><line x1="55" y1="245" x2="330" y2="245" class="grid"/><line x1="275" y1="80" x2="275" y2="355" class="grid"/><line x1="55" y1="300" x2="330" y2="300" class="grid"/><line x1="330" y1="80" x2="330" y2="355" class="grid"/><line x1="55" y1="355" x2="330" y2="355" class="grid"/><rect x="55" y="80" width="275" height="275" fill="none" stroke="#94a3b8" stroke-width="1.5"/><text x="173" y="390" class="small">t = k</text><line x1="505" y1="80" x2="505" y2="355" class="grid"/><line x1="505" y1="80" x2="780" y2="80" class="grid"/><line x1="560" y1="80" x2="560" y2="355" class="grid"/><line x1="505" y1="135" x2="780" y2="135" class="grid"/><line x1="615" y1="80" x2="615" y2="355" class="grid"/><line x1="505" y1="190" x2="780" y2="190" class="grid"/><line x1="670" y1="80" x2="670" y2="355" class="grid"/><line x1="505" y1="245" x2="780" y2="245" class="grid"/><line x1="725" y1="80" x2="725" y2="355" class="grid"/><line x1="505" y1="300" x2="780" y2="300" class="grid"/><line x1="780" y1="80" x2="780" y2="355" class="grid"/><line x1="505" y1="355" x2="780" y2="355" class="grid"/><rect x="505" y="80" width="275" height="275" fill="none" stroke="#94a3b8" stroke-width="1.5"/><text x="623" y="390" class="small">t = k+1</text><circle cx="137.5" cy="217.5" r="18" fill="#fde68a" stroke="#b7791f" stroke-width="2.5"/><path d="M 129.5 238.5 h16 M 131.5 244.5 h12" class="line" stroke-width="2"/><circle cx="192.5" cy="272.5" r="18" fill="#fde68a" stroke="#b7791f" stroke-width="2.5"/><path d="M 184.5 293.5 h16 M 186.5 299.5 h12" class="line" stroke-width="2"/><circle cx="587.5" cy="162.5" r="18" fill="#fde68a" stroke="#b7791f" stroke-width="2.5"/><path d="M 579.5 183.5 h16 M 581.5 189.5 h12" class="line" stroke-width="2"/><circle cx="697.5" cy="272.5" r="18" fill="#fde68a" stroke="#b7791f" stroke-width="2.5"/><path d="M 689.5 293.5 h16 M 691.5 299.5 h12" class="line" stroke-width="2"/><path d="M365 215 H465" class="accent"/><path d="M465 215 l-18 -12 v24 z" fill="#2775ff"/><text x="374" y="198" class="small">同步更新</text></svg>