<svg xmlns="http://www.w3.org/2000/svg" width="900" height="480" viewBox="0 0 900 480" role="img" aria-labelledby="title desc">
<title>PZH-032 示意图</title><desc>用于帮助理解题意的示意图，不作为题目条件</desc>
<rect width="100%" height="100%" rx="24" fill="#ffffff"/><style>
text{font-family:-apple-system,BlinkMacSystemFont,"Segoe UI","Noto Sans SC","Microsoft YaHei",sans-serif;fill:#24324a}
.label{font-size:18px;font-weight:700}.small{font-size:14px;fill:#52627a}.tiny{font-size:12px;fill:#6b7a90}
.line{stroke:#26364d;stroke-width:2.2;fill:none;stroke-linecap:round;stroke-linejoin:round}
.soft{stroke:#91a4bd;stroke-width:1.3;fill:none}.grid{stroke:#cbd5e1;stroke-width:1}.accent{stroke:#2775ff;stroke-width:4;fill:none;stroke-linecap:round;stroke-linejoin:round}
.accent-fill{fill:#dbeafe;stroke:#2775ff;stroke-width:2}.warm{fill:#fff2c7;stroke:#d69e2e;stroke-width:2}.good{fill:#dcfce7;stroke:#16a34a;stroke-width:2}.muted-fill{fill:#f8fafc;stroke:#94a3b8;stroke-width:1.5}
</style><text x="40" y="42" class="label">彩色多边形与“清三角形”</text><polygon points="430.0,75.0 529.9,107.5 591.7,192.5 591.7,297.5 529.9,382.5 430.0,415.0 330.1,382.5 268.3,297.5 268.3,192.5 330.1,107.5" fill="#f8fafc" stroke="#26364d" stroke-width="2.5"/><line x1="430.0" y1="75.0" x2="591.7" y2="192.5" class="soft"/><line x1="430.0" y1="75.0" x2="591.7" y2="297.5" class="soft"/><line x1="430.0" y1="75.0" x2="529.9" y2="382.5" class="soft"/><line x1="430.0" y1="75.0" x2="430.0" y2="415.0" class="soft"/><line x1="430.0" y1="75.0" x2="330.1" y2="382.5" class="soft"/><line x1="430.0" y1="75.0" x2="268.3" y2="297.5" class="soft"/><line x1="430.0" y1="75.0" x2="268.3" y2="192.5" class="soft"/><polygon points="430.0,75.0 591.7,297.5 330.1,382.5" fill="#dcfce7" opacity="0.8" stroke="#16a34a" stroke-width="3"/><circle cx="430.0" cy="75.0" r="10" fill="#60a5fa" stroke="#fff" stroke-width="2"/><circle cx="529.9" cy="107.5" r="10" fill="#f59e0b" stroke="#fff" stroke-width="2"/><circle cx="591.7" cy="192.5" r="10" fill="#34d399" stroke="#fff" stroke-width="2"/><circle cx="591.7" cy="297.5" r="10" fill="#f472b6" stroke="#fff" stroke-width="2"/><circle cx="529.9" cy="382.5" r="10" fill="#a78bfa" stroke="#fff" stroke-width="2"/><circle cx="430.0" cy="415.0" r="10" fill="#60a5fa" stroke="#fff" stroke-width="2"/><circle cx="330.1" cy="382.5" r="10" fill="#f59e0b" stroke="#fff" stroke-width="2"/><circle cx="268.3" cy="297.5" r="10" fill="#34d399" stroke="#fff" stroke-width="2"/><circle cx="268.3" cy="192.5" r="10" fill="#f472b6" stroke="#fff" stroke-width="2"/><circle cx="330.1" cy="107.5" r="10" fill="#a78bfa" stroke="#fff" stroke-width="2"/><text x="650" y="155" class="small">绿色三角形的三个顶点</text><text x="650" y="188" class="small">颜色两两不同</text><text x="650" y="235" class="label" fill="#15803d">清三角形</text><text x="650" y="302" class="tiny">顶点颜色来自边标数的部分和</text></svg>