<svg xmlns="http://www.w3.org/2000/svg" width="900" height="480" viewBox="0 0 900 480" role="img" aria-labelledby="title desc">
<title>PZH-021 示意图</title><desc>用于帮助理解题意的示意图，不作为题目条件</desc>
<rect width="100%" height="100%" rx="24" fill="#ffffff"/><style>
text{font-family:-apple-system,BlinkMacSystemFont,"Segoe UI","Noto Sans SC","Microsoft YaHei",sans-serif;fill:#24324a}
.label{font-size:18px;font-weight:700}.small{font-size:14px;fill:#52627a}.tiny{font-size:12px;fill:#6b7a90}
.line{stroke:#26364d;stroke-width:2.2;fill:none;stroke-linecap:round;stroke-linejoin:round}
.soft{stroke:#91a4bd;stroke-width:1.3;fill:none}.grid{stroke:#cbd5e1;stroke-width:1}.accent{stroke:#2775ff;stroke-width:4;fill:none;stroke-linecap:round;stroke-linejoin:round}
.accent-fill{fill:#dbeafe;stroke:#2775ff;stroke-width:2}.warm{fill:#fff2c7;stroke:#d69e2e;stroke-width:2}.good{fill:#dcfce7;stroke:#16a34a;stroke-width:2}.muted-fill{fill:#f8fafc;stroke:#94a3b8;stroke-width:1.5}
</style><text x="40" y="42" class="label">整点、同余盒与坐标差的公因数</text><line x1="115" y1="80" x2="115" y2="400" class="grid"/><line x1="163" y1="80" x2="163" y2="400" class="grid"/><line x1="211" y1="80" x2="211" y2="400" class="grid"/><line x1="259" y1="80" x2="259" y2="400" class="grid"/><line x1="307" y1="80" x2="307" y2="400" class="grid"/><line x1="355" y1="80" x2="355" y2="400" class="grid"/><line x1="403" y1="80" x2="403" y2="400" class="grid"/><line x1="451" y1="80" x2="451" y2="400" class="grid"/><line x1="499" y1="80" x2="499" y2="400" class="grid"/><line x1="547" y1="80" x2="547" y2="400" class="grid"/><line x1="595" y1="80" x2="595" y2="400" class="grid"/><line x1="643" y1="80" x2="643" y2="400" class="grid"/><line x1="115" y1="400" x2="643" y2="400" class="grid"/><line x1="115" y1="352" x2="643" y2="352" class="grid"/><line x1="115" y1="304" x2="643" y2="304" class="grid"/><line x1="115" y1="256" x2="643" y2="256" class="grid"/><line x1="115" y1="208" x2="643" y2="208" class="grid"/><line x1="115" y1="160" x2="643" y2="160" class="grid"/><line x1="115" y1="112" x2="643" y2="112" class="grid"/><line x1="115" y1="64" x2="643" y2="64" class="grid"/><rect x="115" y="352" width="48" height="48" fill="#eff6ff"/><rect x="115" y="208" width="48" height="48" fill="#eff6ff"/><rect x="115" y="64" width="48" height="48" fill="#eff6ff"/><rect x="163" y="304" width="48" height="48" fill="#eff6ff"/><rect x="163" y="160" width="48" height="48" fill="#eff6ff"/><rect x="211" y="256" width="48" height="48" fill="#eff6ff"/><rect x="211" y="112" width="48" height="48" fill="#eff6ff"/><rect x="259" y="352" width="48" height="48" fill="#eff6ff"/><rect x="259" y="208" width="48" height="48" fill="#eff6ff"/><rect x="259" y="64" width="48" height="48" fill="#eff6ff"/><rect x="307" y="304" width="48" height="48" fill="#eff6ff"/><rect x="307" y="160" width="48" height="48" fill="#eff6ff"/><rect x="355" y="256" width="48" height="48" fill="#eff6ff"/><rect x="355" y="112" width="48" height="48" fill="#eff6ff"/><rect x="403" y="352" width="48" height="48" fill="#eff6ff"/><rect x="403" y="208" width="48" height="48" fill="#eff6ff"/><rect x="403" y="64" width="48" height="48" fill="#eff6ff"/><rect x="451" y="304" width="48" height="48" fill="#eff6ff"/><rect x="451" y="160" width="48" height="48" fill="#eff6ff"/><rect x="499" y="256" width="48" height="48" fill="#eff6ff"/><rect x="499" y="112" width="48" height="48" fill="#eff6ff"/><rect x="547" y="352" width="48" height="48" fill="#eff6ff"/><rect x="547" y="208" width="48" height="48" fill="#eff6ff"/><rect x="547" y="64" width="48" height="48" fill="#eff6ff"/><rect x="595" y="304" width="48" height="48" fill="#eff6ff"/><rect x="595" y="160" width="48" height="48" fill="#eff6ff"/><circle cx="211" cy="352" r="8" fill="#2775ff"/><circle cx="499" cy="160" r="8" fill="#16a34a"/><path d="M211 352 L499 160" class="accent"/><text x="179" y="380" class="small">P</text><text x="513" y="152" class="small">Q</text><text x="690" y="145" class="small">坐标差：</text><text x="690" y="178" class="label">(6, 4)</text><text x="690" y="220" class="small">L(P,Q)=gcd(6,4)=2</text><text x="690" y="284" class="tiny">浅蓝方格示意按模 pˢ 分盒</text></svg>