<svg xmlns="http://www.w3.org/2000/svg" width="900" height="480" viewBox="0 0 900 480" role="img" aria-labelledby="title desc">
<title>PZH-033 示意图</title><desc>用于帮助理解题意的示意图，不作为题目条件</desc>
<rect width="100%" height="100%" rx="24" fill="#ffffff"/><style>
text{font-family:-apple-system,BlinkMacSystemFont,"Segoe UI","Noto Sans SC","Microsoft YaHei",sans-serif;fill:#24324a}
.label{font-size:18px;font-weight:700}.small{font-size:14px;fill:#52627a}.tiny{font-size:12px;fill:#6b7a90}
.line{stroke:#26364d;stroke-width:2.2;fill:none;stroke-linecap:round;stroke-linejoin:round}
.soft{stroke:#91a4bd;stroke-width:1.3;fill:none}.grid{stroke:#cbd5e1;stroke-width:1}.accent{stroke:#2775ff;stroke-width:4;fill:none;stroke-linecap:round;stroke-linejoin:round}
.accent-fill{fill:#dbeafe;stroke:#2775ff;stroke-width:2}.warm{fill:#fff2c7;stroke:#d69e2e;stroke-width:2}.good{fill:#dcfce7;stroke:#16a34a;stroke-width:2}.muted-fill{fill:#f8fafc;stroke:#94a3b8;stroke-width:1.5}
</style><text x="40" y="42" class="label">边长为 3 的蜂巢棋盘与一次直飞</text><polygon points="299.1,262.5 268.8,280.0 238.4,262.5 238.4,227.5 268.8,210.0 299.1,227.5" fill="#f8fafc" stroke="#94a3b8" stroke-width="1.4"/><polygon points="329.4,315.0 299.1,332.5 268.8,315.0 268.8,280.0 299.1,262.5 329.4,280.0" fill="#f8fafc" stroke="#94a3b8" stroke-width="1.4"/><polygon points="359.7,367.5 329.4,385.0 299.1,367.5 299.1,332.5 329.4,315.0 359.7,332.5" fill="#f8fafc" stroke="#94a3b8" stroke-width="1.4"/><polygon points="329.4,210.0 299.1,227.5 268.8,210.0 268.8,175.0 299.1,157.5 329.4,175.0" fill="#f8fafc" stroke="#94a3b8" stroke-width="1.4"/><polygon points="359.7,262.5 329.4,280.0 299.1,262.5 299.1,227.5 329.4,210.0 359.7,227.5" fill="#f8fafc" stroke="#94a3b8" stroke-width="1.4"/><polygon points="390.0,315.0 359.7,332.5 329.4,315.0 329.4,280.0 359.7,262.5 390.0,280.0" fill="#f8fafc" stroke="#94a3b8" stroke-width="1.4"/><polygon points="420.3,367.5 390.0,385.0 359.7,367.5 359.7,332.5 390.0,315.0 420.3,332.5" fill="#f8fafc" stroke="#94a3b8" stroke-width="1.4"/><polygon points="359.7,157.5 329.4,175.0 299.1,157.5 299.1,122.5 329.4,105.0 359.7,122.5" fill="#f8fafc" stroke="#94a3b8" stroke-width="1.4"/><polygon points="390.0,210.0 359.7,227.5 329.4,210.0 329.4,175.0 359.7,157.5 390.0,175.0" fill="#f8fafc" stroke="#94a3b8" stroke-width="1.4"/><polygon points="420.3,262.5 390.0,280.0 359.7,262.5 359.7,227.5 390.0,210.0 420.3,227.5" fill="#f8fafc" stroke="#94a3b8" stroke-width="1.4"/><polygon points="450.6,315.0 420.3,332.5 390.0,315.0 390.0,280.0 420.3,262.5 450.6,280.0" fill="#f8fafc" stroke="#94a3b8" stroke-width="1.4"/><polygon points="480.9,367.5 450.6,385.0 420.3,367.5 420.3,332.5 450.6,315.0 480.9,332.5" fill="#f8fafc" stroke="#94a3b8" stroke-width="1.4"/><polygon points="420.3,157.5 390.0,175.0 359.7,157.5 359.7,122.5 390.0,105.0 420.3,122.5" fill="#f8fafc" stroke="#94a3b8" stroke-width="1.4"/><polygon points="450.6,210.0 420.3,227.5 390.0,210.0 390.0,175.0 420.3,157.5 450.6,175.0" fill="#f8fafc" stroke="#94a3b8" stroke-width="1.4"/><polygon points="480.9,262.5 450.6,280.0 420.3,262.5 420.3,227.5 450.6,210.0 480.9,227.5" fill="#f8fafc" stroke="#94a3b8" stroke-width="1.4"/><polygon points="511.2,315.0 480.9,332.5 450.6,315.0 450.6,280.0 480.9,262.5 511.2,280.0" fill="#f8fafc" stroke="#94a3b8" stroke-width="1.4"/><polygon points="480.9,157.5 450.6,175.0 420.3,157.5 420.3,122.5 450.6,105.0 480.9,122.5" fill="#f8fafc" stroke="#94a3b8" stroke-width="1.4"/><polygon points="511.2,210.0 480.9,227.5 450.6,210.0 450.6,175.0 480.9,157.5 511.2,175.0" fill="#f8fafc" stroke="#94a3b8" stroke-width="1.4"/><polygon points="541.6,262.5 511.2,280.0 480.9,262.5 480.9,227.5 511.2,210.0 541.6,227.5" fill="#f8fafc" stroke="#94a3b8" stroke-width="1.4"/><polyline points="268.8,245.0 329.4,245.0 390.0,245.0 450.6,245.0 480.9,297.5 450.6,350.0 390.0,350.0 359.7,297.5" class="accent"/><circle cx="359.7" cy="297.5" r="6" fill="#2775ff"/><text x="200" y="210" class="small">一次直飞</text><path d="M270 205 L330 230" class="soft"/><text x="610" y="302" class="small">转向</text><path d="M600 295 L555 275" class="soft"/><text x="620" y="360" class="tiny">粗蓝线表示沿蜂线连续前进的路径片段</text></svg>